<?xml version="1.0" encoding="utf-8"?>
<!-- Generator: Adobe Illustrator 16.0.0, SVG Export Plug-In . SVG Version: 6.00 Build 0)  -->
<!DOCTYPE svg PUBLIC "-//W3C//DTD SVG 1.1//EN" "http://www.w3.org/Graphics/SVG/1.1/DTD/svg11.dtd">
<svg version="1.1" id="Layer_1" xmlns="http://www.w3.org/2000/svg" xmlns:xlink="http://www.w3.org/1999/xlink" x="0px" y="0px"
	 width="878.335px" height="242px" viewBox="0 0 878.335 242" enable-background="new 0 0 878.335 242" xml:space="preserve">
<rect x="-4.5" y="38.5" display="none" fill="#2165A4" stroke="#000000" stroke-miterlimit="10" width="1010" height="215"/>
<rect x="-91.5" y="-6.5" display="none" fill="#2474BF" stroke="#000000" stroke-miterlimit="10" width="1007" height="265"/>
<g>
	<path fill="#FFFFFF" stroke="#000000" stroke-width="0.25" stroke-miterlimit="10" d="M305.779,42.052l37.773,45.08v24.245
		l-37.125-44.322v52.981h-15.585V42.052H305.779z M364.821,42.052v77.984h-15.532V42.052H364.821z"/>
	<path fill="#FFFFFF" stroke="#000000" stroke-width="0.25" stroke-miterlimit="10" d="M378.297,41.998h62.723v15.045h-62.723
		V41.998z M378.297,73.548h37.773v15.044h-37.773V73.548z M378.297,104.991h62.723v15.045h-62.723V104.991z"/>
	<path fill="#FFFFFF" stroke="#000000" stroke-width="0.25" stroke-miterlimit="10" d="M469.864,120.036h-15.586V42.052h41.075
		c6.674-0.18,12.32,1.894,16.938,6.224c4.51,4.329,6.765,10.174,6.765,17.534c0,6.242-2.002,11.329-6.007,15.261
		c-5.123,5.123-13.457,7.613-25.002,7.468h-2.219V73.494h2.326c7.107,0.108,11.708-0.866,13.801-2.922
		c1.046-1.01,1.569-2.598,1.569-4.762c0-3.174-0.723-5.43-2.165-6.765c-1.227-1.19-3.085-1.84-5.574-1.948h-0.271h-25.651V120.036z"
		/>
	<path fill="#FFFFFF" stroke="#000000" stroke-width="0.25" stroke-miterlimit="10" d="M548.281,88.539
		c-4.582,0-8.461-1.587-11.636-4.763c-3.175-3.174-4.762-6.962-4.762-11.365V58.179c0-3.968,1.335-7.45,4.004-10.445
		c2.67-3.066,6.043-4.906,10.12-5.52h46.866v14.882H547.47v15.315c0,0.361,0.107,0.649,0.324,0.866
		c0.144,0.145,0.307,0.216,0.487,0.216h32.038c4.148,0,7.756,1.372,10.823,4.113c3.03,2.563,4.87,6.206,5.52,10.932h-17.642h1.299
		H548.281z M596.717,99.579v4.383c0,4.366-1.606,8.154-4.816,11.365c-3.139,3.139-7,4.708-11.581,4.708h-45.352v-15.045h45.352
		c0.18,0,0.342-0.072,0.486-0.216c0.217-0.217,0.325-0.487,0.325-0.812v-4.383H596.717z"/>
</g>
<g>
	<path fill="#FFFFFF" stroke="#000000" stroke-width="0.25" stroke-miterlimit="10" d="M369.279,236.082h-17.264l-5.195-10.715
		h-15.152v-15.045h7.793l-11.095-22.784l-23.704,48.543h-17.264l40.967-79.715L369.279,236.082z"/>
	<path fill="#FFFFFF" stroke="#000000" stroke-width="0.25" stroke-miterlimit="10" d="M397.961,236.082
		c-4.546,0-8.424-1.604-11.635-4.816c-3.139-3.139-4.708-6.908-4.708-11.311V174.28c0-4.401,1.587-8.189,4.762-11.365
		c3.175-3.174,7.035-4.762,11.581-4.762h32.093c4.581,0,8.46,1.624,11.635,4.871c3.139,3.103,4.708,6.855,4.708,11.256v6.819
		h-15.531v-6.819c0-0.36-0.108-0.631-0.325-0.812c-0.181-0.18-0.343-0.271-0.486-0.271h-32.093c-0.145,0-0.324,0.108-0.541,0.325
		c-0.145,0.145-0.216,0.397-0.216,0.758v45.675c0,0.397,0.089,0.704,0.271,0.92c0.144,0.108,0.306,0.162,0.486,0.162h32.093
		c0.18,0,0.342-0.071,0.486-0.216c0.217-0.217,0.325-0.505,0.325-0.866v-6.711h15.531v6.711c0,4.402-1.569,8.172-4.708,11.311
		c-3.175,3.212-7.054,4.816-11.635,4.816H397.961z"/>
	<path fill="#FFFFFF" stroke="#000000" stroke-width="0.25" stroke-miterlimit="10" d="M540.94,236.082h-17.264l-5.195-10.715
		h-15.153v-15.045h7.793l-11.094-22.784l-23.703,48.543h-17.264l40.967-79.715L540.94,236.082z"/>
	<path fill="#FFFFFF" stroke="#000000" stroke-width="0.25" stroke-miterlimit="10" d="M568.866,236.082H553.28v-77.983h48.436
		c4.581,0,8.46,1.624,11.635,4.871c3.139,3.103,4.708,6.855,4.708,11.256v45.676c0,4.402-1.569,8.172-4.708,11.311
		c-3.175,3.211-7.054,4.816-11.635,4.816h-13.422v-15.045h13.422c0.144,0,0.306-0.09,0.486-0.271
		c0.217-0.18,0.325-0.451,0.325-0.812v-45.676c0-0.36-0.108-0.631-0.325-0.812c-0.181-0.18-0.343-0.271-0.486-0.271h-32.85V236.082z
		"/>
	<path fill="#FFFFFF" stroke="#000000" stroke-width="0.25" stroke-miterlimit="10" d="M631.21,158.044h62.723v15.045H631.21
		V158.044z M631.21,189.596h37.773v15.044H631.21V189.596z M631.21,221.037h62.723v15.045H631.21V221.037z"/>
	<path fill="#FFFFFF" stroke="#000000" stroke-width="0.25" stroke-miterlimit="10" d="M722.777,158.099v77.983h-15.586v-77.983
		H722.777z M781.17,158.099v77.983h-15.531v-52.927l-21.431,26.192l-17.697-21.646v-24.299l17.697,21.702l22.025-27.005H781.17z"/>
	<path fill="#FFFFFF" stroke="#000000" stroke-width="0.25" stroke-miterlimit="10" d="M876.58,158.099l-63.427,77.983h-19.807
		l63.48-77.983H876.58z M813.153,158.099l19.267,23.649l-9.904,12.122L793.4,158.099H813.153z"/>
</g>
<g>
	<path fill-rule="evenodd" clip-rule="evenodd" fill="#FFFFFF" d="M123.193,203.357c-25.785,0-51.571,0.018-77.355-0.008
		c-8.569-0.01-15.853-3.189-21.886-9.234c-4.5-4.51-7.248-9.955-8.42-16.196c-0.328-1.747-0.486-3.521-0.486-5.305
		c-0.002-33.598-0.136-67.197,0.068-100.794c0.076-12.355,6.132-21.5,17.017-27.34c4.392-2.356,9.169-3.314,14.15-3.314
		c39.632,0.006,79.264,0.006,118.897-0.017c0.802,0,0.969,0.221,0.962,0.985c-0.041,3.893-0.032,7.788-0.006,11.681
		c0.004,0.578-0.162,0.791-0.732,0.762c-0.591-0.028-1.185-0.003-1.778-0.003c-38.549-0.001-77.099-0.021-115.648,0.013
		c-8.599,0.007-14.783,3.993-18.43,11.797c-1.092,2.336-1.551,4.854-1.552,7.435c-0.006,32.206-0.013,64.412,0.001,96.618
		c0.004,10.29,8.227,18.809,18.486,19.219c0.772,0.031,1.545,0.051,2.318,0.051c49.584,0.002,99.171-0.006,148.755,0.012
		c4.208,0.004,8.144-0.867,11.631-3.276c5.609-3.871,8.611-9.248,8.628-16.068c0.06-23.464,0.022-46.928,0.026-70.393
		c0-1.476-0.176-1.264,1.272-1.268c3.816-0.009,7.633,0.018,11.449-0.021c0.72-0.007,0.889,0.197,0.889,0.898
		c-0.017,24.187-0.015,48.375-0.015,72.562c0,3.875-0.57,7.665-2.035,11.258c-4.238,10.381-11.806,16.889-22.786,19.354
		c-1.97,0.441-3.967,0.6-5.986,0.6C174.815,203.355,149.005,203.357,123.193,203.357z"/>
	<path fill-rule="evenodd" clip-rule="evenodd" fill="#FFFFFF" d="M123.214,234.998c-14.925,0-29.852,0.004-44.779-0.002
		c-3.204,0-5.67-1.576-6.796-4.309c-1.792-4.348,1.252-9.199,5.938-9.457c0.386-0.021,0.773-0.025,1.159-0.025
		c8.25,0,16.5-0.012,24.75,0.016c0.727,0.002,0.902-0.209,0.895-0.908c-0.034-3.455-0.002-6.91-0.025-10.363
		c-0.004-0.568,0.138-0.75,0.73-0.748c12.089,0.016,24.182,0.016,36.272-0.004c0.683,0,0.795,0.25,0.791,0.852
		c-0.024,3.455,0.004,6.91-0.025,10.365c-0.005,0.648,0.191,0.807,0.825,0.805c8.43-0.02,16.86-0.02,25.291-0.012
		c3.465,0.002,6.255,2.168,6.928,5.354c0.926,4.387-2.164,8.275-6.707,8.434c-0.334,0.01-0.669,0.004-1.005,0.004
		C152.708,235,137.962,235,123.214,234.998z"/>
	<path fill-rule="evenodd" clip-rule="evenodd" fill="#FFFFFF" d="M227.263,92.823c-3.17,0-6.339-0.017-9.508,0.015
		c-0.669,0.008-0.878-0.167-0.875-0.862c0.027-6.337,0.025-12.678,0-19.016c-0.003-0.666,0.216-0.809,0.837-0.808
		c6.341,0.022,12.678,0.021,19.017,0.003c0.615-0.003,0.849,0.142,0.848,0.812c-0.024,6.363-0.024,12.729-0.002,19.092
		c0.002,0.645-0.23,0.779-0.808,0.774C233.602,92.814,230.434,92.823,227.263,92.823z"/>
	<path fill-rule="evenodd" clip-rule="evenodd" fill="#FFFFFF" d="M181.328,54.931c-2.837,0-5.672-0.021-8.508,0.013
		c-0.626,0.007-0.78-0.194-0.778-0.792c0.018-5.671,0.018-11.344-0.001-17.016c-0.001-0.602,0.173-0.804,0.792-0.8
		c5.699,0.02,11.396,0.02,17.092,0.001c0.625-0.001,0.785,0.218,0.783,0.812c-0.018,5.673-0.019,11.343,0.002,17.015
		c0.002,0.624-0.2,0.783-0.797,0.775C187.052,54.913,184.191,54.929,181.328,54.931z"/>
	<path fill-rule="evenodd" clip-rule="evenodd" fill="#FFFFFF" d="M217.987,53.223c0,2.448-0.015,4.898,0.014,7.346
		c0.005,0.617-0.148,0.854-0.82,0.851c-4.898-0.026-9.796-0.026-14.693-0.001c-0.648,0.002-0.823-0.185-0.819-0.825
		c0.025-4.924,0.021-9.848,0.001-14.771c-0.003-0.583,0.124-0.805,0.759-0.801c4.925,0.024,9.849,0.021,14.771,0
		c0.597-0.003,0.807,0.147,0.8,0.777c-0.037,2.474-0.016,4.949-0.016,7.424C217.985,53.223,217.987,53.223,217.987,53.223z"/>
	<path fill-rule="evenodd" clip-rule="evenodd" fill="#FFFFFF" d="M200.679,82.956c-1.907,0-3.815-0.016-5.723,0.009
		c-0.525,0.007-0.722-0.137-0.718-0.692c0.021-3.869,0.019-7.737,0.003-11.603c-0.001-0.494,0.136-0.679,0.655-0.678
		c3.84,0.02,7.683,0.021,11.523,0.001c0.563-0.002,0.706,0.229,0.702,0.738c-0.009,3.84-0.011,7.683,0.006,11.525
		c0.002,0.547-0.196,0.713-0.724,0.706c-1.908-0.023-3.816-0.008-5.725-0.008C200.679,82.954,200.679,82.954,200.679,82.956z"/>
	<path fill-rule="evenodd" clip-rule="evenodd" fill="#FFFFFF" d="M233.931,57.361c0-1.675,0.016-3.351-0.013-5.022
		c-0.007-0.512,0.121-0.751,0.672-0.75c3.451,0.011,6.901,0.009,10.352-0.003c0.47-0.001,0.62,0.18,0.617,0.643
		c-0.015,3.453-0.015,6.902,0,10.353c0,0.5-0.166,0.681-0.669,0.679c-3.425-0.014-6.851-0.017-10.276,0.002
		c-0.547,0.002-0.703-0.197-0.695-0.725C233.946,60.811,233.931,59.086,233.931,57.361z"/>
	<path fill-rule="evenodd" clip-rule="evenodd" fill="#FFFFFF" d="M254.646,36.649c-1.674,0-3.348-0.017-5.021,0.011
		c-0.531,0.01-0.72-0.146-0.717-0.695c0.021-3.397,0.019-6.795,0.004-10.195c-0.002-0.457,0.129-0.638,0.609-0.637
		c3.424,0.014,6.849,0.013,10.272,0c0.462-0.001,0.627,0.145,0.625,0.621c-0.013,3.424-0.015,6.849,0.008,10.272
		c0.004,0.542-0.213,0.637-0.685,0.631C258.044,36.636,256.345,36.649,254.646,36.649z"/>
	<path fill-rule="evenodd" clip-rule="evenodd" fill="#FFFFFF" d="M222.806,24.053c0,1.598-0.02,3.197,0.01,4.793
		c0.011,0.506-0.151,0.678-0.652,0.677c-3.197-0.016-6.394-0.016-9.588-0.002c-0.5,0.003-0.659-0.156-0.656-0.669
		c0.023-3.222,0.02-6.444,0.002-9.666c-0.002-0.466,0.127-0.621,0.608-0.616c3.223,0.021,6.446,0.02,9.667,0.001
		c0.473-0.003,0.625,0.137,0.617,0.609C222.792,20.804,222.805,22.43,222.806,24.053z"/>
	<path fill-rule="evenodd" clip-rule="evenodd" fill="#FFFFFF" d="M197.203,32.507c0-1.34,0.011-2.68-0.006-4.02
		c-0.007-0.458,0.146-0.637,0.622-0.633c2.707,0.017,5.411,0.017,8.116,0c0.477-0.003,0.623,0.166,0.619,0.629
		c-0.012,2.705-0.011,5.409,0.002,8.114c0.002,0.455-0.139,0.649-0.617,0.647c-2.705-0.015-5.412-0.014-8.115,0
		c-0.472,0.001-0.636-0.182-0.631-0.642c0.018-1.365,0.007-2.73,0.007-4.095C197.201,32.507,197.202,32.507,197.203,32.507z"/>
	<path fill-rule="evenodd" clip-rule="evenodd" fill="#FFFFFF" d="M198.679,11.388c0,1.158-0.015,2.316,0.004,3.475
		c0.008,0.436-0.083,0.653-0.587,0.649c-2.396-0.021-4.79-0.018-7.183-0.005c-0.391,0.003-0.544-0.112-0.542-0.522
		c0.014-2.42,0.016-4.84,0.001-7.26c-0.003-0.458,0.2-0.561,0.611-0.559c2.342,0.012,4.684,0.015,7.026-0.003
		c0.502-0.003,0.684,0.169,0.673,0.673c-0.026,1.182-0.01,2.368-0.01,3.552C198.676,11.388,198.676,11.388,198.679,11.388z"/>
	<path fill-rule="evenodd" clip-rule="evenodd" fill="#FFFFFF" d="M263.676,60.677c-0.952,0-1.905-0.011-2.858,0.005
		c-0.396,0.008-0.615-0.063-0.61-0.539c0.022-1.931,0.018-3.861,0.002-5.791c-0.002-0.457,0.148-0.638,0.626-0.631
		c1.879,0.021,3.758,0.025,5.635,0.002c0.52-0.006,0.661,0.19,0.656,0.68c-0.02,1.878-0.022,3.757,0.002,5.637
		c0.007,0.519-0.186,0.663-0.676,0.646C265.529,60.657,264.602,60.677,263.676,60.677z"/>
	<path fill-rule="evenodd" clip-rule="evenodd" fill="#FFFFFF" d="M236.983,37.842c-0.002,0.849-0.023,1.698,0.007,2.546
		c0.017,0.486-0.119,0.69-0.645,0.682c-1.723-0.027-3.447-0.023-5.172-0.002c-0.502,0.007-0.677-0.161-0.672-0.667
		c0.022-1.723,0.02-3.448-0.002-5.171c-0.005-0.468,0.154-0.63,0.622-0.625c1.751,0.019,3.501,0.02,5.25-0.001
		c0.468-0.007,0.637,0.139,0.619,0.614C236.96,36.092,236.983,36.967,236.983,37.842z"/>
	<path fill-rule="evenodd" clip-rule="evenodd" fill="#FFFFFF" d="M187.275,65.407c-0.824,0-1.648-0.017-2.472,0.006
		c-0.418,0.01-0.601-0.101-0.595-0.56c0.021-1.752,0.017-3.504,0.002-5.255c-0.002-0.387,0.104-0.556,0.518-0.553
		c1.752,0.014,3.504,0.005,5.254-0.008c0.431-0.003,0.58,0.168,0.576,0.599c-0.019,1.727-0.02,3.454,0.002,5.18
		c0.004,0.501-0.218,0.607-0.656,0.596C189.029,65.391,188.152,65.407,187.275,65.407z"/>
</g>
<path fill-rule="evenodd" clip-rule="evenodd" fill="#FFFFFF" d="M123.157,184.558c-25.475,0-50.953,0.002-76.428,0
	c-3.075,0-5.717-1.202-8.037-3.111c-3.483-2.866-5.009-6.719-5.454-11.112c-0.131-1.29-0.123-2.57-0.123-3.855
	c-0.008-30.813-0.062-61.626,0.049-92.441c0.019-5.307,2.381-9.756,6.917-12.772c2.12-1.41,4.56-1.993,7.112-1.994
	c35.094-0.002,70.188,0,105.285-0.018c0.788,0,0.948,0.305,0.946,1.01c-0.019,5.132-0.013,10.262-0.008,15.394
	c0,1.135-0.105,0.97,1.004,0.971c5.079,0.008,10.159-0.007,15.239,0.021c0.661,0.004,0.871-0.137,0.866-0.84
	c-0.033-5.106-0.017-10.211-0.017-15.316c0-0.989,0.029-1.023,0.975-1.025c2.192-0.003,4.384,0.02,6.575-0.013
	c0.671-0.01,0.906,0.2,0.901,0.885c-0.026,3.455-0.016,6.911-0.007,10.365c0.002,1.11-0.118,0.967,1.006,0.977
	c1.65,0.009,3.301,0.024,4.951-0.011c0.589-0.012,0.739,0.196,0.736,0.759c-0.019,4.383,0.005,8.769-0.024,13.151
	c-0.003,0.655,0.198,0.815,0.829,0.813c6.317-0.02,12.635,0.005,18.953-0.03c0.798-0.004,1.005,0.218,0.983,0.996
	c-0.053,2.037-0.036,4.075-0.005,6.111c0.007,0.579-0.185,0.754-0.755,0.749c-2.757-0.023-5.52,0.003-8.277-0.022
	c-0.564-0.005-0.755,0.146-0.755,0.734c0.02,6.602,0.025,13.203-0.002,19.804c-0.001,0.672,0.275,0.742,0.822,0.739
	c4.643-0.014,9.284-0.008,13.924-0.006c1.035,0.001,1.049,0.012,1.049,1.026c0,18.308,0.027,36.618-0.028,54.924
	c-0.007,2.668-1.054,5.123-2.438,7.392c-2.353,3.856-5.804,5.754-10.332,5.752C174.109,184.555,148.635,184.558,123.157,184.558z
	 M159.49,122.248c-10.862,3.711-21.727,7.413-32.582,11.148c-1.92,0.662-3.768,0.67-5.699,0.005
	c-10.918-3.764-21.856-7.479-32.777-11.235c-0.755-0.258-1.044-0.165-1.071,0.676c-0.051,1.632-0.139,3.267-0.271,4.894
	c-0.416,5.165-0.703,10.336-0.82,15.518c-0.036,1.664,0.459,3.13,1.399,4.474c1.643,2.345,3.942,3.898,6.441,5.155
	c7.274,3.659,15.125,5.016,23.142,5.654c4.205,0.335,8.413,0.262,12.622,0.008c6.094-0.363,12.088-1.288,17.908-3.163
	c3.821-1.231,7.49-2.789,10.584-5.441c2.286-1.958,3.661-4.311,3.398-7.463c-0.217-2.633-0.276-5.279-0.438-7.917
	c-0.255-4.167-0.534-8.327-0.814-12.636C160.077,122.06,159.781,122.147,159.49,122.248z M188.586,101.997
	c-21.047-7.162-42.089-14.347-63.127-21.539c-0.969-0.33-1.862-0.318-2.837,0.015c-8.89,3.056-17.794,6.074-26.688,9.106
	c-12.242,4.177-24.481,8.362-36.722,12.54c-0.811,0.276-1.516,0.683-1.964,1.453c-0.981,1.684-0.342,3.437,1.669,4.55
	c0.548,0.628,1.298,0.896,2.055,1.163c4.815,1.703,9.669,3.294,14.492,4.973c1.16,0.402,1.21,0.583,0.609,1.62
	c-0.979,1.683-1.852,3.422-2.548,5.242c-0.207,0.542-0.484,1.108-0.066,1.686c-0.833,2.848-1.333,5.748-1.302,8.723
	c0.008,0.734-0.177,1.154-0.85,1.569c-4.695,2.901-4.913,9.436-0.436,12.614c0.469,0.333,0.627,0.635,0.541,1.18
	c-1.274,7.986-2.483,15.979-3.642,23.984c-0.265,1.825,0.212,3.037,1.801,3.866c1.315,0.576,2.692,0.932,4.121,1.059
	c2.426,0.217,4.8,0.004,7.03-1.046c1.764-0.833,2.215-1.76,1.93-3.672c-0.189-1.274-0.365-2.549-0.557-3.821
	c-1.014-6.733-2.021-13.468-3.063-20.198c-0.099-0.63,0.004-0.984,0.551-1.373c4.457-3.167,4.189-9.845-0.512-12.622
	c-0.605-0.356-0.777-0.726-0.778-1.389c-0.011-5.377,1.692-10.153,4.916-14.428c0.434-0.575,0.77-0.645,1.449-0.415
	c12.626,4.333,25.268,8.627,37.9,12.947c0.962,0.332,1.865,0.391,2.841,0.057c20.995-7.178,41.996-14.341,62.994-21.51
	c2.421-0.827,2.965-1.632,2.818-4.152C190.682,103.035,189.774,102.402,188.586,101.997z"/>
</svg>
